<?xml version="1.0" encoding="UTF-8"?>
<svg xmlns="http://www.w3.org/2000/svg" viewBox="0 0 158.27 45.82">
  <defs>
    <style>
      .b {
        fill: #78b0e0;
      }

      .c {
        fill: #77afdf;
      }

      .d {
        fill: #7bb2e0;
      }

      .e {
        fill: #79b0e0;
      }
    </style>
  </defs>
  <path class="b" d="M17.26,45.82c-6.47-.23-11.79-1.82-15.58-6.83-.48-.63-.81-1.37-1.22-2.05-.68-1.13-.69-2.37.42-3,.92-.52,2.23-.67,3.28-.49.7.11,1.47.97,1.84,1.69,2.72,5.16,11.98,6.4,16.87,3.83,2.74-1.44,4.19-3.61,3.84-6.8-.36-3.31-2.45-5.29-5.34-6.36-1.91-.71-4-.96-6.03-1.27-3.48-.54-6.79-1.53-9.5-3.84C-1.01,14.86.24,5.54,8.52,1.92,16.11-1.4,25.89-.93,31.23,7.45c.53.83.91,2,.78,2.93-.24,1.77-2.38,2.61-3.89,1.62-.75-.49-1.35-1.27-1.89-2.01-3.29-4.46-11.29-5.93-15.9-2.86-1.95,1.3-3.19,3.06-2.85,5.53.36,2.67,1.85,4.66,4.39,5.44,2.59.8,5.3,1.21,7.98,1.68,4.62.81,8.82,2.44,11.28,6.7,4.5,7.77-.2,17.07-9.41,18.79-1.63.3-3.29.42-4.46.56Z"/>
  <path class="b" d="M152.27,41.99c-3.43,2.5-6.95,3.55-10.91,3.38-6.93-.3-13.39-5.76-14.61-12.56-1.96-10.95,6.68-20.19,17.74-18.97,6.57.72,12.83,6.77,13.41,13.39.4,4.56.32,9.17.37,13.76.02,1.78.09,3.8-2.26,4.31-2.34.51-3.13-1.18-3.73-3.3ZM142.07,39.8c5.96.07,10.47-4.34,10.57-10.33.08-5.33-4.71-10.09-10.23-10.15-5.73-.06-10.42,4.57-10.46,10.32-.04,5.47,4.56,10.09,10.12,10.16Z"/>
  <path class="e" d="M85.65,26.58c-1.29-3.92-3.89-6.27-7.76-7.05-3.9-.78-7.28.43-9.83,3.5-3.19,3.85-3.1,9.68.05,13.2,3.67,4.09,9.08,4.8,13.7,1.79.28-.18.54-.39.83-.55,1.41-.82,2.68-.7,3.71.63,1,1.28.79,2.72-.53,3.88-5.23,4.62-14.51,4.56-19.92-.1-4.94-4.25-6.86-9.59-5.38-15.89,1.5-6.42,5.81-10.3,12.13-11.92,8.31-2.13,17.8,4.39,18.88,12.87.08.66.25,1.31.3,1.97.15,2.1-1.03,3.52-3.12,3.55-4.13.06-8.27.06-12.4,0-1.97-.03-3.23-1.26-3.17-2.87.06-1.7,1.2-2.64,3.3-2.66,2.87-.03,5.73-.03,8.6-.05.12,0,.23-.1.62-.29Z"/>
  <path class="c" d="M47.55,20.13c0,4.96-.16,9.67.06,14.37.13,2.63,2.4,4.51,5.08,4.84,1.44.18,2.78.47,3.39,2.02.82,2.08-.97,4.14-3.35,3.85-6.94-.87-10.99-5.36-11.11-12.73-.13-8.06-.04-16.12-.02-24.17,0-.59.14-1.18.23-1.77.25-1.65,1.23-2.49,2.88-2.37,1.72.12,2.68,1.16,2.74,2.85.08,2.53.02,5.05.02,7.94,1.54,0,2.97-.02,4.4,0,2.07.04,3.15.9,3.21,2.51.06,1.66-1.1,2.63-3.25,2.67-1.33.02-2.66,0-4.28,0Z"/>
  <path class="d" d="M95.95,19.85c0-5.26-.02-10.52,0-15.78.01-2.21,1.23-3.57,2.98-3.47,1.6.09,2.74,1.31,2.89,3.25.09,1.13.03,2.26.03,3.39,0,8.92-.01,17.84.02,26.77,0,1.11.15,2.25.45,3.32.37,1.36,1.37,1.99,2.83,2.07,2.28.11,3.47,1.14,3.47,2.77,0,1.49-1.44,2.79-3.41,3.07-3.48.49-7.2-2.02-8.45-5.92-.5-1.56-.75-3.25-.78-4.89-.1-4.86-.04-9.72-.04-14.58Z"/>
  <path class="c" d="M112.34,19.68c0-5.19-.01-10.38,0-15.57,0-2.09,1.08-3.42,2.74-3.49,1.68-.07,2.74.96,3.06,3.03.1.65.08,1.33.08,1.99,0,9.31,0,18.63.01,27.94,0,1.12.04,2.27.28,3.36.32,1.5,1.21,2.39,2.91,2.47,2.47.12,3.6,1.14,3.51,2.89-.08,1.59-1.64,2.83-3.7,2.97-3.44.22-7.05-2.35-8.04-5.95-.49-1.77-.77-3.64-.82-5.48-.11-4.72-.04-9.44-.04-14.17Z"/>
</svg>
